<svg xmlns="http://www.w3.org/2000/svg" xmlns:xlink="http://www.w3.org/1999/xlink" width="500" zoomAndPan="magnify" viewBox="0 0 375 374.999991" height="500" preserveAspectRatio="xMidYMid meet" version="1.0"><defs><clipPath id="id1"><path d="M 112.5 112.5 L 262.5 112.5 L 262.5 262.5 L 112.5 262.5 Z M 112.5 112.5 " clip-rule="nonzero"/></clipPath><clipPath id="id2"><path d="M 184 112.5 L 262.5 112.5 L 262.5 262.5 L 184 262.5 Z M 184 112.5 " clip-rule="nonzero"/></clipPath><clipPath id="id3"><path d="M 124 112.5 L 254 112.5 L 254 204 L 124 204 Z M 124 112.5 " clip-rule="nonzero"/></clipPath><clipPath id="id4"><path d="M 184 191 L 220 191 L 220 262.5 L 184 262.5 Z M 184 191 " clip-rule="nonzero"/></clipPath></defs><g clip-path="url(#id1)"><path fill="#4caf50" d="M 262.5 187.5 C 262.5 188.726562 262.46875 189.953125 262.410156 191.179688 C 262.347656 192.40625 262.257812 193.628906 262.140625 194.851562 C 262.019531 196.074219 261.867188 197.289062 261.6875 198.503906 C 261.507812 199.71875 261.296875 200.929688 261.058594 202.132812 C 260.820312 203.335938 260.550781 204.53125 260.253906 205.722656 C 259.953125 206.914062 259.625 208.097656 259.269531 209.269531 C 258.914062 210.445312 258.527344 211.609375 258.117188 212.765625 C 257.703125 213.921875 257.261719 215.066406 256.789062 216.203125 C 256.320312 217.335938 255.824219 218.457031 255.300781 219.566406 C 254.773438 220.675781 254.222656 221.773438 253.644531 222.855469 C 253.066406 223.9375 252.460938 225.003906 251.828125 226.058594 C 251.199219 227.109375 250.542969 228.148438 249.859375 229.167969 C 249.179688 230.1875 248.472656 231.191406 247.742188 232.175781 C 247.007812 233.164062 246.253906 234.128906 245.476562 235.078125 C 244.695312 236.027344 243.894531 236.957031 243.070312 237.867188 C 242.246094 238.777344 241.402344 239.664062 240.53125 240.53125 C 239.664062 241.402344 238.777344 242.246094 237.867188 243.070312 C 236.957031 243.894531 236.027344 244.695312 235.078125 245.476562 C 234.128906 246.253906 233.164062 247.007812 232.175781 247.742188 C 231.191406 248.472656 230.1875 249.179688 229.167969 249.859375 C 228.148438 250.542969 227.109375 251.199219 226.058594 251.828125 C 225.003906 252.460938 223.9375 253.066406 222.855469 253.644531 C 221.773438 254.222656 220.675781 254.773438 219.566406 255.300781 C 218.457031 255.824219 217.335938 256.320312 216.203125 256.789062 C 215.066406 257.261719 213.921875 257.703125 212.765625 258.117188 C 211.609375 258.527344 210.445312 258.914062 209.269531 259.269531 C 208.097656 259.625 206.914062 259.953125 205.722656 260.253906 C 204.53125 260.550781 203.335938 260.820312 202.132812 261.058594 C 200.929688 261.296875 199.71875 261.507812 198.503906 261.6875 C 197.289062 261.867188 196.074219 262.019531 194.851562 262.140625 C 193.628906 262.257812 192.40625 262.347656 191.179688 262.410156 C 189.953125 262.46875 188.726562 262.5 187.5 262.5 C 186.273438 262.5 185.046875 262.46875 183.820312 262.410156 C 182.59375 262.347656 181.371094 262.257812 180.148438 262.140625 C 178.925781 262.019531 177.710938 261.867188 176.496094 261.6875 C 175.28125 261.507812 174.070312 261.296875 172.867188 261.058594 C 171.664062 260.820312 170.46875 260.550781 169.277344 260.253906 C 168.085938 259.953125 166.902344 259.625 165.730469 259.269531 C 164.554688 258.914062 163.390625 258.527344 162.234375 258.117188 C 161.078125 257.703125 159.933594 257.261719 158.796875 256.789062 C 157.664062 256.320312 156.542969 255.824219 155.433594 255.300781 C 154.324219 254.773438 153.226562 254.222656 152.144531 253.644531 C 151.0625 253.066406 149.996094 252.460938 148.941406 251.828125 C 147.890625 251.199219 146.851562 250.542969 145.832031 249.859375 C 144.8125 249.179688 143.808594 248.472656 142.824219 247.742188 C 141.835938 247.007812 140.871094 246.253906 139.921875 245.476562 C 138.972656 244.695312 138.042969 243.894531 137.132812 243.070312 C 136.222656 242.246094 135.335938 241.402344 134.46875 240.53125 C 133.597656 239.664062 132.753906 238.777344 131.929688 237.867188 C 131.105469 236.957031 130.304688 236.027344 129.523438 235.078125 C 128.746094 234.128906 127.992188 233.164062 127.257812 232.175781 C 126.527344 231.191406 125.820312 230.1875 125.140625 229.167969 C 124.457031 228.148438 123.800781 227.109375 123.171875 226.058594 C 122.539062 225.003906 121.933594 223.9375 121.355469 222.855469 C 120.777344 221.773438 120.226562 220.675781 119.699219 219.566406 C 119.175781 218.457031 118.679688 217.335938 118.210938 216.203125 C 117.738281 215.066406 117.296875 213.921875 116.882812 212.765625 C 116.46875 211.609375 116.085938 210.445312 115.730469 209.269531 C 115.375 208.097656 115.046875 206.914062 114.746094 205.722656 C 114.449219 204.53125 114.179688 203.335938 113.941406 202.132812 C 113.703125 200.929688 113.492188 199.71875 113.3125 198.503906 C 113.132812 197.289062 112.980469 196.074219 112.859375 194.851562 C 112.742188 193.628906 112.652344 192.40625 112.589844 191.179688 C 112.53125 189.953125 112.5 188.726562 112.5 187.5 C 112.5 186.273438 112.53125 185.046875 112.589844 183.820312 C 112.652344 182.59375 112.742188 181.371094 112.859375 180.148438 C 112.980469 178.925781 113.132812 177.710938 113.3125 176.496094 C 113.492188 175.28125 113.703125 174.070312 113.941406 172.867188 C 114.179688 171.664062 114.449219 170.46875 114.746094 169.277344 C 115.046875 168.085938 115.375 166.902344 115.730469 165.730469 C 116.085938 164.554688 116.46875 163.390625 116.882812 162.234375 C 117.296875 161.078125 117.738281 159.933594 118.210938 158.796875 C 118.679688 157.664062 119.175781 156.542969 119.699219 155.433594 C 120.226562 154.324219 120.777344 153.226562 121.355469 152.144531 C 121.933594 151.0625 122.539062 149.996094 123.171875 148.941406 C 123.800781 147.890625 124.457031 146.851562 125.140625 145.832031 C 125.820312 144.8125 126.527344 143.808594 127.257812 142.824219 C 127.992188 141.835938 128.746094 140.871094 129.523438 139.921875 C 130.304688 138.972656 131.105469 138.042969 131.929688 137.132812 C 132.753906 136.222656 133.597656 135.335938 134.46875 134.46875 C 135.335938 133.597656 136.222656 132.753906 137.132812 131.929688 C 138.042969 131.105469 138.972656 130.304688 139.921875 129.523438 C 140.871094 128.746094 141.835938 127.992188 142.824219 127.257812 C 143.808594 126.527344 144.8125 125.820312 145.832031 125.140625 C 146.851562 124.457031 147.890625 123.800781 148.941406 123.171875 C 149.996094 122.539062 151.0625 121.933594 152.144531 121.355469 C 153.226562 120.777344 154.324219 120.226562 155.433594 119.699219 C 156.542969 119.175781 157.664062 118.679688 158.796875 118.210938 C 159.933594 117.738281 161.078125 117.296875 162.234375 116.882812 C 163.390625 116.46875 164.554688 116.085938 165.730469 115.730469 C 166.902344 115.375 168.085938 115.046875 169.277344 114.746094 C 170.46875 114.449219 171.664062 114.179688 172.867188 113.941406 C 174.070312 113.703125 175.28125 113.492188 176.496094 113.3125 C 177.710938 113.132812 178.925781 112.980469 180.148438 112.859375 C 181.371094 112.742188 182.59375 112.652344 183.820312 112.589844 C 185.046875 112.53125 186.273438 112.5 187.5 112.5 C 188.726562 112.5 189.953125 112.53125 191.179688 112.589844 C 192.40625 112.652344 193.628906 112.742188 194.851562 112.859375 C 196.074219 112.980469 197.289062 113.132812 198.503906 113.3125 C 199.71875 113.492188 200.929688 113.703125 202.132812 113.941406 C 203.335938 114.179688 204.53125 114.449219 205.722656 114.746094 C 206.914062 115.046875 208.097656 115.375 209.269531 115.730469 C 210.445312 116.085938 211.609375 116.46875 212.765625 116.882812 C 213.921875 117.296875 215.066406 117.738281 216.203125 118.210938 C 217.335938 118.679688 218.457031 119.175781 219.566406 119.699219 C 220.675781 120.226562 221.773438 120.777344 222.855469 121.355469 C 223.9375 121.933594 225.003906 122.539062 226.058594 123.171875 C 227.109375 123.800781 228.148438 124.457031 229.167969 125.140625 C 230.1875 125.820312 231.191406 126.527344 232.175781 127.257812 C 233.164062 127.992188 234.128906 128.746094 235.078125 129.523438 C 236.027344 130.304688 236.957031 131.105469 237.867188 131.929688 C 238.777344 132.753906 239.664062 133.597656 240.53125 134.46875 C 241.402344 135.335938 242.246094 136.222656 243.070312 137.132812 C 243.894531 138.042969 244.695312 138.972656 245.476562 139.921875 C 246.253906 140.871094 247.007812 141.835938 247.742188 142.824219 C 248.472656 143.808594 249.179688 144.8125 249.859375 145.832031 C 250.542969 146.851562 251.199219 147.890625 251.828125 148.941406 C 252.460938 149.996094 253.066406 151.0625 253.644531 152.144531 C 254.222656 153.226562 254.773438 154.324219 255.300781 155.433594 C 255.824219 156.542969 256.320312 157.664062 256.789062 158.796875 C 257.261719 159.933594 257.703125 161.078125 258.117188 162.234375 C 258.527344 163.390625 258.914062 164.554688 259.269531 165.730469 C 259.625 166.902344 259.953125 168.085938 260.253906 169.277344 C 260.550781 170.46875 260.820312 171.664062 261.058594 172.867188 C 261.296875 174.070312 261.507812 175.28125 261.6875 176.496094 C 261.867188 177.710938 262.019531 178.925781 262.140625 180.148438 C 262.257812 181.371094 262.347656 182.59375 262.410156 183.820312 C 262.46875 185.046875 262.5 186.273438 262.5 187.5 Z M 262.5 187.5 " fill-opacity="1" fill-rule="nonzero"/></g><g clip-path="url(#id2)"><path fill="#ffc107" d="M 187.5 112.5 L 187.5 187.5 L 219.078125 203.289062 L 184.34375 262.5 C 185.527344 262.5 186.316406 262.5 187.5 262.5 C 228.949219 262.5 262.5 228.949219 262.5 187.5 C 262.5 146.050781 228.949219 112.5 187.5 112.5 Z M 187.5 112.5 " fill-opacity="1" fill-rule="nonzero"/></g><g clip-path="url(#id3)"><path fill="#f44336" d="M 155.921875 203.289062 L 187.5 151.972656 L 253.421875 151.972656 C 240.789062 128.289062 215.921875 112.5 187.5 112.5 C 161.050781 112.5 137.761719 126.316406 124.34375 147.238281 Z M 155.921875 203.289062 " fill-opacity="1" fill-rule="nonzero"/></g><path fill="#dd2c00" d="M 124.34375 147.238281 L 155.921875 203.289062 L 175.65625 199.34375 Z M 124.34375 147.238281 " fill-opacity="1" fill-rule="nonzero"/><path fill="#f9a825" d="M 253.027344 151.972656 L 187.5 151.972656 L 181.578125 170.921875 Z M 253.027344 151.972656 " fill-opacity="1" fill-rule="nonzero"/><g clip-path="url(#id4)"><path fill="#558b2f" d="M 184.34375 262.5 L 219.078125 203.289062 L 204.078125 191.050781 Z M 184.34375 262.5 " fill-opacity="1" fill-rule="nonzero"/></g><path fill="#ffffff" d="M 223.027344 187.5 C 223.027344 188.664062 222.96875 189.824219 222.855469 190.980469 C 222.742188 192.140625 222.570312 193.289062 222.34375 194.429688 C 222.117188 195.570312 221.835938 196.699219 221.496094 197.8125 C 221.160156 198.925781 220.765625 200.019531 220.320312 201.09375 C 219.875 202.171875 219.378906 203.222656 218.832031 204.246094 C 218.28125 205.273438 217.683594 206.269531 217.039062 207.238281 C 216.394531 208.203125 215.699219 209.136719 214.960938 210.039062 C 214.222656 210.9375 213.445312 211.796875 212.621094 212.621094 C 211.796875 213.445312 210.9375 214.222656 210.039062 214.960938 C 209.136719 215.699219 208.203125 216.394531 207.238281 217.039062 C 206.269531 217.683594 205.273438 218.28125 204.246094 218.832031 C 203.222656 219.378906 202.171875 219.875 201.09375 220.320312 C 200.019531 220.765625 198.925781 221.160156 197.8125 221.496094 C 196.699219 221.835938 195.570312 222.117188 194.429688 222.34375 C 193.289062 222.570312 192.140625 222.742188 190.980469 222.855469 C 189.824219 222.96875 188.664062 223.027344 187.5 223.027344 C 186.335938 223.027344 185.175781 222.96875 184.019531 222.855469 C 182.859375 222.742188 181.710938 222.570312 180.570312 222.34375 C 179.429688 222.117188 178.300781 221.835938 177.1875 221.496094 C 176.074219 221.160156 174.980469 220.765625 173.90625 220.320312 C 172.828125 219.875 171.777344 219.378906 170.753906 218.832031 C 169.726562 218.28125 168.730469 217.683594 167.761719 217.039062 C 166.796875 216.394531 165.863281 215.699219 164.960938 214.960938 C 164.0625 214.222656 163.203125 213.445312 162.378906 212.621094 C 161.554688 211.796875 160.777344 210.9375 160.039062 210.039062 C 159.300781 209.136719 158.605469 208.203125 157.960938 207.238281 C 157.316406 206.269531 156.71875 205.273438 156.167969 204.246094 C 155.621094 203.222656 155.125 202.171875 154.679688 201.09375 C 154.234375 200.019531 153.839844 198.925781 153.503906 197.8125 C 153.164062 196.699219 152.882812 195.570312 152.65625 194.429688 C 152.429688 193.289062 152.257812 192.140625 152.144531 190.980469 C 152.03125 189.824219 151.972656 188.664062 151.972656 187.5 C 151.972656 186.335938 152.03125 185.175781 152.144531 184.019531 C 152.257812 182.859375 152.429688 181.710938 152.65625 180.570312 C 152.882812 179.429688 153.164062 178.300781 153.503906 177.1875 C 153.839844 176.074219 154.234375 174.980469 154.679688 173.90625 C 155.125 172.828125 155.621094 171.777344 156.167969 170.753906 C 156.71875 169.726562 157.316406 168.730469 157.960938 167.761719 C 158.605469 166.796875 159.300781 165.863281 160.039062 164.960938 C 160.777344 164.0625 161.554688 163.203125 162.378906 162.378906 C 163.203125 161.554688 164.0625 160.777344 164.960938 160.039062 C 165.863281 159.300781 166.796875 158.605469 167.761719 157.960938 C 168.730469 157.316406 169.726562 156.71875 170.753906 156.167969 C 171.777344 155.621094 172.828125 155.125 173.90625 154.679688 C 174.980469 154.234375 176.074219 153.839844 177.1875 153.503906 C 178.300781 153.164062 179.429688 152.882812 180.570312 152.65625 C 181.710938 152.429688 182.859375 152.257812 184.019531 152.144531 C 185.175781 152.03125 186.335938 151.972656 187.5 151.972656 C 188.664062 151.972656 189.824219 152.03125 190.980469 152.144531 C 192.140625 152.257812 193.289062 152.429688 194.429688 152.65625 C 195.570312 152.882812 196.699219 153.164062 197.8125 153.503906 C 198.925781 153.839844 200.019531 154.234375 201.09375 154.679688 C 202.171875 155.125 203.222656 155.621094 204.246094 156.167969 C 205.273438 156.71875 206.269531 157.316406 207.238281 157.960938 C 208.203125 158.605469 209.136719 159.300781 210.039062 160.039062 C 210.9375 160.777344 211.796875 161.554688 212.621094 162.378906 C 213.445312 163.203125 214.222656 164.0625 214.960938 164.960938 C 215.699219 165.863281 216.394531 166.796875 217.039062 167.761719 C 217.683594 168.730469 218.28125 169.726562 218.832031 170.753906 C 219.378906 171.777344 219.875 172.828125 220.320312 173.90625 C 220.765625 174.980469 221.160156 176.074219 221.496094 177.1875 C 221.835938 178.300781 222.117188 179.429688 222.34375 180.570312 C 222.570312 181.710938 222.742188 182.859375 222.855469 184.019531 C 222.96875 185.175781 223.027344 186.335938 223.027344 187.5 Z M 223.027344 187.5 " fill-opacity="1" fill-rule="nonzero"/><path fill="#2196f3" d="M 215.132812 187.5 C 215.132812 188.40625 215.085938 189.308594 215 190.207031 C 214.910156 191.109375 214.777344 192.003906 214.601562 192.890625 C 214.425781 193.777344 214.203125 194.65625 213.941406 195.519531 C 213.679688 196.386719 213.375 197.238281 213.027344 198.074219 C 212.683594 198.910156 212.296875 199.726562 211.867188 200.527344 C 211.441406 201.324219 210.976562 202.097656 210.476562 202.851562 C 209.972656 203.605469 209.433594 204.328125 208.859375 205.027344 C 208.285156 205.730469 207.679688 206.398438 207.039062 207.039062 C 206.398438 207.679688 205.730469 208.285156 205.027344 208.859375 C 204.328125 209.433594 203.605469 209.972656 202.851562 210.476562 C 202.097656 210.976562 201.324219 211.441406 200.527344 211.867188 C 199.726562 212.296875 198.910156 212.683594 198.074219 213.027344 C 197.238281 213.375 196.386719 213.679688 195.519531 213.941406 C 194.65625 214.203125 193.777344 214.425781 192.890625 214.601562 C 192.003906 214.777344 191.109375 214.910156 190.207031 215 C 189.308594 215.085938 188.40625 215.132812 187.5 215.132812 C 186.59375 215.132812 185.691406 215.085938 184.792969 215 C 183.890625 214.910156 182.996094 214.777344 182.109375 214.601562 C 181.222656 214.425781 180.34375 214.203125 179.480469 213.941406 C 178.613281 213.679688 177.761719 213.375 176.925781 213.027344 C 176.089844 212.683594 175.273438 212.296875 174.472656 211.867188 C 173.675781 211.441406 172.902344 210.976562 172.148438 210.476562 C 171.394531 209.972656 170.671875 209.433594 169.96875 208.859375 C 169.269531 208.285156 168.601562 207.679688 167.960938 207.039062 C 167.320312 206.398438 166.714844 205.730469 166.140625 205.027344 C 165.566406 204.328125 165.027344 203.605469 164.523438 202.851562 C 164.023438 202.097656 163.558594 201.324219 163.132812 200.527344 C 162.703125 199.726562 162.316406 198.910156 161.972656 198.074219 C 161.625 197.238281 161.320312 196.386719 161.058594 195.519531 C 160.796875 194.65625 160.574219 193.777344 160.398438 192.890625 C 160.222656 192.003906 160.089844 191.109375 160 190.207031 C 159.914062 189.308594 159.867188 188.40625 159.867188 187.5 C 159.867188 186.59375 159.914062 185.691406 160 184.792969 C 160.089844 183.890625 160.222656 182.996094 160.398438 182.109375 C 160.574219 181.222656 160.796875 180.34375 161.058594 179.480469 C 161.320312 178.613281 161.625 177.761719 161.972656 176.925781 C 162.316406 176.089844 162.703125 175.273438 163.132812 174.472656 C 163.558594 173.675781 164.023438 172.902344 164.523438 172.148438 C 165.027344 171.394531 165.566406 170.671875 166.140625 169.96875 C 166.714844 169.269531 167.320312 168.601562 167.960938 167.960938 C 168.601562 167.320312 169.269531 166.714844 169.96875 166.140625 C 170.671875 165.566406 171.394531 165.027344 172.148438 164.523438 C 172.902344 164.023438 173.675781 163.558594 174.472656 163.132812 C 175.273438 162.703125 176.089844 162.316406 176.925781 161.972656 C 177.761719 161.625 178.613281 161.320312 179.480469 161.058594 C 180.34375 160.796875 181.222656 160.574219 182.109375 160.398438 C 182.996094 160.222656 183.890625 160.089844 184.792969 160 C 185.691406 159.914062 186.59375 159.867188 187.5 159.867188 C 188.40625 159.867188 189.308594 159.914062 190.207031 160 C 191.109375 160.089844 192.003906 160.222656 192.890625 160.398438 C 193.777344 160.574219 194.65625 160.796875 195.519531 161.058594 C 196.386719 161.320312 197.238281 161.625 198.074219 161.972656 C 198.910156 162.316406 199.726562 162.703125 200.527344 163.132812 C 201.324219 163.558594 202.097656 164.023438 202.851562 164.523438 C 203.605469 165.027344 204.328125 165.566406 205.027344 166.140625 C 205.730469 166.714844 206.398438 167.320312 207.039062 167.960938 C 207.679688 168.601562 208.285156 169.269531 208.859375 169.96875 C 209.433594 170.671875 209.972656 171.394531 210.476562 172.148438 C 210.976562 172.902344 211.441406 173.675781 211.867188 174.472656 C 212.296875 175.273438 212.683594 176.089844 213.027344 176.925781 C 213.375 177.761719 213.679688 178.613281 213.941406 179.480469 C 214.203125 180.34375 214.425781 181.222656 214.601562 182.109375 C 214.777344 182.996094 214.910156 183.890625 215 184.792969 C 215.085938 185.691406 215.132812 186.59375 215.132812 187.5 Z M 215.132812 187.5 " fill-opacity="1" fill-rule="nonzero"/></svg>